<?xml version="1.0" standalone="no"?><!DOCTYPE svg PUBLIC "-//W3C//DTD SVG 1.1//EN" "http://www.w3.org/Graphics/SVG/1.1/DTD/svg11.dtd"><svg t="1571568054950" class="icon" viewBox="0 0 448 512" version="1.1" xmlns="http://www.w3.org/2000/svg"  xmlns:xlink="http://www.w3.org/1999/xlink"><path d="M436 124H12c-6.627 0-12-5.373-12-12V80c0-6.627 5.373-12 12-12h424c6.627 0 12 5.373 12 12v32c0 6.627-5.373 12-12 12zm0 160H12c-6.627 0-12-5.373-12-12v-32c0-6.627 5.373-12 12-12h424c6.627 0 12 5.373 12 12v32c0 6.627-5.373 12-12 12zm0 160H12c-6.627 0-12-5.373-12-12v-32c0-6.627 5.373-12 12-12h424c6.627 0 12 5.373 12 12v32c0 6.627-5.373 12-12 12z" fill="#303e4e"></path></svg>